<?xml version="1.0" encoding="utf-8"?>
<!-- Generator: Adobe Illustrator 22.0.1, SVG Export Plug-In . SVG Version: 6.00 Build 0)  -->
<svg version="1.1" id="Layer_1" xmlns="http://www.w3.org/2000/svg" xmlns:xlink="http://www.w3.org/1999/xlink" x="0px" y="0px"
	 viewBox="0 0 1250 1250" style="enable-background:new 0 0 1250 1250;" xml:space="preserve">
<style type="text/css">
	.st0{fill:none;stroke:#FFFFFF;stroke-width:2;}
	.st1{fill:#00E1C6;stroke:#00E1C6;stroke-width:2;}
	.st2{fill:#FFFFFF;}
	.st3{font-family:'ArialMT';}
	.st4{font-size:38.8941px;}
	.st5{fill:#00E1C6;stroke:#FFFFFF;stroke-width:2;}
</style>
<line class="st0" x1="960.5" y1="1011.5" x2="936.2" y2="1011.5"/>
<line class="st0" x1="450" y1="189.8" x2="425.7" y2="189.8"/>
<line class="st0" x1="936.2" y1="1011.5" x2="450" y2="189.8"/>
<line class="st0" x1="942.3" y1="1011.5" x2="950.9" y2="1020.1"/>
<line class="st0" x1="942.3" y1="1011.5" x2="950.9" y2="1002.9"/>
<line class="st0" x1="437.9" y1="189.8" x2="446.5" y2="198.4"/>
<line class="st0" x1="437.9" y1="189.8" x2="446.5" y2="181.2"/>
<rect x="962.6" y="841.3" class="st1" width="262.1" height="48.6"/>
<text transform="matrix(1 0 0 1 972.6748 875.335)" class="st2 st3 st4">been_viewed</text>
<rect x="962.6" y="889.9" class="st0" width="262.1" height="48.6"/>
<text transform="matrix(1 0 0 1 972.6748 923.9629)" class="st2 st3 st4">id</text>
<rect x="962.6" y="938.6" class="st0" width="262.1" height="48.6"/>
<text transform="matrix(1 0 0 1 972.6748 972.5703)" class="st2 st3 st4">torrent_id</text>
<rect x="962.6" y="987.2" class="st0" width="262.1" height="48.6"/>
<text transform="matrix(1 0 0 1 972.6748 1021.2002)" class="st2 st3 st4">user_id</text>
<rect x="962.6" y="1035.8" class="st0" width="262.1" height="48.6"/>
<text transform="matrix(1 0 0 1 972.6748 1069.8076)" class="st2 st3 st4">watched</text>
<rect x="962.6" y="1084.4" class="st0" width="262.1" height="48.6"/>
<text transform="matrix(1 0 0 1 972.6748 1118.4355)" class="st2 st3 st4">date_added</text>
<rect x="211.5" y="116.9" class="st1" width="216.3" height="48.6"/>
<text transform="matrix(1 0 0 1 240.9912 150.9478)" class="st2 st3 st4">users</text>
<rect x="211.5" y="165.5" class="st0" width="216.3" height="48.6"/>
<text transform="matrix(1 0 0 1 223.1699 199.5669)" class="st2 st3 st4">id</text>
<rect x="211.5" y="214.2" class="st0" width="216.3" height="48.6"/>
<text transform="matrix(1 0 0 1 223.1699 248.1831)" class="st2 st3 st4">username</text>
<rect x="211.5" y="262.8" class="st0" width="216.3" height="48.6"/>
<text transform="matrix(1 0 0 1 223.1699 296.7974)" class="st2 st3 st4">name</text>
<rect x="211.5" y="311.4" class="st0" width="216.3" height="48.6"/>
<text transform="matrix(1 0 0 1 223.1699 345.4087)" class="st2 st3 st4">surname</text>
<rect x="211.5" y="360" class="st0" width="216.3" height="48.6"/>
<text transform="matrix(1 0 0 1 223.1699 394.0278)" class="st2 st3 st4">email</text>
<rect x="211.5" y="408.6" class="st0" width="216.3" height="48.6"/>
<text transform="matrix(1 0 0 1 223.1699 442.646)" class="st2 st3 st4">password</text>
<rect x="211.5" y="457.2" class="st0" width="216.3" height="48.6"/>
<text transform="matrix(1 0 0 1 223.1699 491.2651)" class="st2 st3 st4">token</text>
<rect x="211.5" y="505.9" class="st0" width="216.3" height="48.6"/>
<text transform="matrix(1 0 0 1 223.1699 539.8813)" class="st2 st3 st4">verified</text>
<rect x="211.5" y="554.5" class="st0" width="216.3" height="48.6"/>
<text transform="matrix(1 0 0 1 223.1699 588.5054)" class="st2 st3 st4">fb_id</text>
<rect x="211.5" y="603.1" class="st0" width="216.3" height="48.6"/>
<text transform="matrix(1 0 0 1 223.1699 637.1143)" class="st2 st3 st4">oauth</text>
<rect x="211.5" y="651.7" class="st0" width="216.3" height="48.6"/>
<text transform="matrix(1 0 0 1 223.1699 685.7441)" class="st2 st3 st4">picture</text>
<rect x="24.8" y="768.4" class="st5" width="320.6" height="48.6"/>
<text transform="matrix(1 0 0 1 51.3779 802.4141)" class="st2 st3 st4">user_comments</text>
<rect x="24.8" y="817" class="st0" width="320.6" height="48.6"/>
<text transform="matrix(1 0 0 1 51.3779 851.042)" class="st2 st3 st4">id</text>
<rect x="24.8" y="865.6" class="st0" width="320.6" height="48.6"/>
<text transform="matrix(1 0 0 1 51.3779 899.6494)" class="st2 st3 st4">torrent_id</text>
<rect x="24.8" y="914.2" class="st0" width="320.6" height="48.6"/>
<text transform="matrix(1 0 0 1 51.3779 948.2773)" class="st2 st3 st4">userid</text>
<rect x="24.8" y="962.9" class="st0" width="320.6" height="48.6"/>
<text transform="matrix(1 0 0 1 51.3779 996.8838)" class="st2 st3 st4">comment_text</text>
</svg>
